<?xml version="1.0" encoding="utf-8"?>
<!-- Generator: Adobe Illustrator 23.0.4, SVG Export Plug-In . SVG Version: 6.00 Build 0)  -->
<svg version="1.1" id="Layer_1" xmlns="http://www.w3.org/2000/svg" xmlns:xlink="http://www.w3.org/1999/xlink" x="0px" y="0px"
	 viewBox="0 0 721.8 253" style="enable-background:new 0 0 721.8 253;" xml:space="preserve">
<g>
	<path d="M62.1,64.8h62.9v20.8H84.8v30.9h36.5v20.8H84.8v32.4h41v20.9H62.1V64.8z"/>
	<path d="M217.1,190.7h-66.9V64.8h22.6v105h44.2V190.7z"/>
	<path d="M237.2,64.8h62.9v20.8h-40.3v30.9h36.5v20.8h-36.5v32.4h41v20.9h-63.6V64.8z"/>
	<path d="M576.8,85.7h-29.7v105h-22.7v-105h-29.8V64.8h82.1V85.7z"/>
	<path d="M597.1,64.8H660v20.8h-40.3v30.9h36.5v20.8h-36.5v32.4h41v20.9h-63.6L597.1,64.8L597.1,64.8z"/>
	<g>
		<polygon points="474.5,190.7 498.2,190.7 461.6,63.9 443.8,63.9 407.3,190.7 429.8,190.7 452.8,99.2 		"/>
	</g>
	<g>
		<polygon points="341.4,63.9 317.7,63.9 354.4,190.7 372.2,190.7 408.7,63.9 386.2,63.9 363.2,155.4 		"/>
	</g>
</g>
</svg>
