<svg width="16" height="16" viewBox="0 0 16 16" fill="none" xmlns="http://www.w3.org/2000/svg">
<rect width="16" height="16" rx="5" fill="white"/>
<path d="M6.574 4.933C6.946 4.933 7.273 5.008 7.555 5.158C7.837 5.302 8.059 5.491 8.221 5.725V5.014H9.49V10.036C9.49 10.498 9.397 10.909 9.211 11.269C9.025 11.635 8.746 11.923 8.374 12.133C8.002 12.349 7.552 12.457 7.024 12.457C6.316 12.457 5.734 12.292 5.278 11.962C4.828 11.632 4.573 11.182 4.513 10.612H5.764C5.83 10.84 5.971 11.02 6.187 11.152C6.409 11.29 6.676 11.359 6.988 11.359C7.354 11.359 7.651 11.248 7.879 11.026C8.107 10.81 8.221 10.48 8.221 10.036V9.262C8.059 9.496 7.834 9.691 7.546 9.847C7.264 10.003 6.94 10.081 6.574 10.081C6.154 10.081 5.77 9.973 5.422 9.757C5.074 9.541 4.798 9.238 4.594 8.848C4.396 8.452 4.297 7.999 4.297 7.489C4.297 6.985 4.396 6.538 4.594 6.148C4.798 5.758 5.071 5.458 5.413 5.248C5.761 5.038 6.148 4.933 6.574 4.933ZM8.221 7.507C8.221 7.201 8.161 6.94 8.041 6.724C7.921 6.502 7.759 6.334 7.555 6.22C7.351 6.1 7.132 6.04 6.898 6.04C6.664 6.04 6.448 6.097 6.25 6.211C6.052 6.325 5.89 6.493 5.764 6.715C5.644 6.931 5.584 7.189 5.584 7.489C5.584 7.789 5.644 8.053 5.764 8.281C5.89 8.503 6.052 8.674 6.25 8.794C6.454 8.914 6.67 8.974 6.898 8.974C7.132 8.974 7.351 8.917 7.555 8.803C7.759 8.683 7.921 8.515 8.041 8.299C8.161 8.077 8.221 7.813 8.221 7.507ZM11.2786 10.063C11.0506 10.063 10.8616 9.994 10.7116 9.856C10.5676 9.712 10.4956 9.535 10.4956 9.325C10.4956 9.115 10.5676 8.941 10.7116 8.803C10.8616 8.659 11.0506 8.587 11.2786 8.587C11.5006 8.587 11.6836 8.659 11.8276 8.803C11.9716 8.941 12.0436 9.115 12.0436 9.325C12.0436 9.535 11.9716 9.712 11.8276 9.856C11.6836 9.994 11.5006 10.063 11.2786 10.063Z" fill="#8D81D9"/>
</svg>
