<svg width="444" height="696" viewBox="0 0 444 696" fill="none" xmlns="http://www.w3.org/2000/svg">
<mask id="mask0" mask-type="alpha" maskUnits="userSpaceOnUse" x="0" y="0" width="444" height="696">
<rect width="444" height="696" fill="#C4C4C4"/>
</mask>
<g mask="url(#mask0)">
<path opacity="0.1" d="M29.4628 -178C7.87439 -136.174 -20.0021 -26.8193 41.1987 75.994C117.7 204.511 323.296 197.564 354.158 422.468C378.847 602.391 431.673 679.791 455 696" stroke="white"/>
<path opacity="0.1" d="M57.4063 -199C35.8658 -157.174 8.05108 -47.8193 69.1162 54.994C145.448 183.511 350.588 176.564 381.381 401.468C406.016 581.391 458.725 658.791 482 675" stroke="white"/>
<path opacity="0.1" d="M81.4628 -220C59.8744 -178.174 31.9979 -68.8193 93.1987 33.994C169.7 162.511 375.296 155.564 406.158 380.468C430.847 560.391 483.673 637.791 507 654" stroke="white"/>
<path opacity="0.1" d="M105.463 -241C83.8744 -199.126 55.9979 -89.6463 117.199 13.2847C193.7 141.948 399.296 134.994 430.158 360.155C454.847 540.284 507.673 617.772 531 634" stroke="white"/>
</g>
</svg>
